<?xml version="1.0" standalone="no"?>
<!DOCTYPE svg PUBLIC "-//W3C//DTD SVG 20010904//EN"
 "http://www.w3.org/TR/2001/REC-SVG-20010904/DTD/svg10.dtd">
<svg version="1.0" xmlns="http://www.w3.org/2000/svg"
 width="700.000000pt" height="700.000000pt" viewBox="0 0 700.000000 700.000000"
 preserveAspectRatio="xMidYMid meet">
<metadata>
Created by potrace 1.14, written by Peter Selinger 2001-2017
</metadata>
<g transform="translate(0.000000,700.000000) scale(0.100000,-0.100000)"
fill="#000000" stroke="none">
<path d="M3471 6848 c-28 -84 -61 -179 -72 -210 l-21 -56 -151 -2 c-148 -3
-273 -6 -291 -9 -4 0 74 -62 174 -137 123 -92 180 -141 176 -150 -6 -15 -83
-268 -110 -362 -11 -40 -12 -53 -3 -49 6 2 86 57 176 122 90 64 169 119 175
121 6 2 43 -17 81 -43 182 -126 242 -168 272 -191 l33 -24 -15 48 c-8 27 -39
127 -68 221 l-54 172 179 137 c98 75 177 138 176 140 -2 1 -101 4 -221 5 -135
2 -221 7 -226 14 -5 5 -39 99 -77 207 -38 109 -72 198 -75 198 -4 0 -30 -69
-58 -152z"/>
<path d="M2280 6216 c-339 -150 -653 -369 -894 -625 -81 -87 -95 -98 -149
-127 -53 -27 -136 -83 -196 -131 -31 -25 -29 -20 19 42 144 188 301 358 450
489 75 65 220 174 324 241 86 56 124 99 44 49 -331 -207 -614 -472 -853 -800
-48 -65 -90 -126 -92 -134 -13 -38 -37 -90 -42 -90 -3 0 -21 30 -40 66 -19 37
-58 97 -86 134 l-52 67 76 106 c118 163 208 272 331 400 62 65 87 99 60 82
-11 -7 -96 -94 -152 -156 -84 -93 -185 -220 -258 -324 -35 -49 -66 -92 -68
-95 -2 -2 -7 2 -11 9 -6 10 -12 4 -19 -20 -19 -63 -41 -144 -46 -174 -3 -16
-10 -52 -15 -80 -17 -87 -8 -262 18 -327 34 -87 111 -142 171 -123 20 6 20 6
-1 -47 -20 -51 -86 -230 -107 -293 -9 -27 -11 -27 -11 -6 -5 131 -136 383
-278 531 -35 37 -43 41 -44 25 0 -11 -2 -29 -4 -40 -4 -19 -18 -118 -31 -215
-14 -113 -6 -295 18 -407 23 -109 94 -206 158 -216 28 -5 90 17 102 36 12 20
10 -9 -11 -118 -21 -105 -25 -129 -36 -210 l-7 -50 -24 58 c-53 125 -155 267
-297 416 -58 60 -62 62 -68 40 -11 -44 -6 -308 8 -381 21 -112 32 -148 69
-224 68 -141 175 -215 260 -179 l34 14 0 -92 c0 -51 2 -122 4 -159 l4 -68 -58
78 c-69 92 -185 207 -295 291 -44 34 -85 65 -90 69 -6 5 -23 17 -38 26 -26 18
-27 18 -27 -2 0 -46 41 -254 65 -332 32 -100 91 -223 140 -290 101 -138 238
-199 316 -141 16 12 28 18 27 14 -3 -13 21 -133 45 -224 l23 -85 -47 47 c-98
98 -266 192 -467 259 l-53 18 6 -30 c15 -66 57 -184 94 -263 105 -225 245
-355 383 -355 65 0 110 25 136 75 l18 37 29 -74 c15 -40 65 -145 109 -233 45
-88 83 -164 84 -168 2 -4 -31 10 -75 32 -135 68 -513 208 -513 191 0 -16 71
-171 105 -229 153 -260 396 -410 552 -341 32 14 48 29 64 63 l22 44 77 -103
c43 -57 94 -123 115 -148 l37 -45 -33 9 c-18 5 -48 12 -68 15 -20 3 -46 7 -58
9 -109 21 -503 24 -503 3 0 -29 185 -215 270 -271 69 -45 182 -95 240 -105 19
-3 73 -6 120 -5 100 1 174 28 219 79 l28 33 134 -128 134 -128 -85 1 c-47 1
-119 -2 -160 -6 -78 -8 -281 -50 -337 -70 l-33 -11 22 -23 c35 -37 189 -139
274 -182 124 -61 213 -85 325 -85 88 0 102 3 160 32 57 28 79 49 115 110 1 2
42 -24 90 -56 107 -71 284 -166 415 -221 104 -44 332 -121 358 -121 9 0 23 -5
31 -10 10 -7 -25 -10 -111 -8 l-126 2 -34 -35 c-19 -20 -40 -38 -48 -41 -21
-6 -6 -25 42 -50 35 -19 58 -23 132 -22 95 0 359 12 410 19 17 2 64 7 105 10
41 3 102 8 135 12 76 9 119 8 225 -1 91 -8 127 -11 320 -21 69 -3 134 -7 145
-9 30 -4 110 19 151 44 l36 23 -35 20 c-19 11 -40 30 -45 42 -10 22 -23 25
-90 27 -12 0 -35 -3 -50 -6 -25 -6 -25 -5 -7 6 11 7 25 13 30 14 53 10 276
100 395 159 134 67 166 85 273 155 54 36 87 52 87 44 0 -28 85 -101 138 -118
159 -53 380 5 607 159 116 78 154 113 134 119 -56 18 -91 28 -116 32 -15 3
-48 10 -73 15 -92 22 -217 36 -310 37 -52 1 -96 1 -98 2 -3 0 84 85 197 193
l65 60 15 -22 c34 -52 120 -89 219 -94 164 -10 339 65 491 209 77 72 157 171
147 181 -9 9 -346 9 -421 0 -33 -4 -80 -10 -105 -13 -25 -3 -61 -9 -80 -14
-42 -12 -59 -13 -44 -2 11 7 176 218 205 261 l15 24 19 -38 c22 -49 50 -72 95
-82 150 -31 335 77 477 278 49 68 157 282 151 299 -6 17 -365 -114 -520 -190
l-76 -38 30 51 c49 84 109 206 158 324 l46 112 17 -37 c25 -57 83 -86 154 -78
130 15 247 124 350 325 41 80 120 307 111 316 -7 7 -165 -52 -256 -95 -102
-48 -177 -98 -250 -164 -47 -43 -54 -47 -48 -26 18 63 56 237 56 257 l0 22 36
-21 c41 -24 106 -21 164 8 47 24 138 119 179 187 36 61 107 226 114 267 3 14
12 52 20 85 22 87 43 235 33 235 -11 0 -155 -108 -226 -169 -94 -81 -175 -167
-229 -243 l-48 -67 5 157 c2 86 6 159 8 161 2 3 10 -1 16 -7 18 -18 84 -14
126 7 104 54 184 203 217 403 13 81 17 286 8 361 l-5 38 -32 -33 c-90 -93
-164 -181 -220 -263 -65 -93 -126 -207 -126 -233 0 -27 -9 -7 -15 34 -4 21
-11 68 -17 104 -5 36 -12 79 -15 95 -2 17 -10 54 -18 83 -14 56 -12 61 16 36
10 -9 36 -18 58 -21 122 -17 213 173 215 447 0 46 -13 239 -18 265 -2 11 -9
55 -16 98 -7 42 -16 77 -19 76 -13 -1 -119 -132 -173 -215 -64 -96 -114 -215
-132 -312 l-11 -63 -14 48 c-8 26 -38 109 -66 184 l-52 136 43 0 c173 0 224
294 114 664 -15 50 -24 68 -30 58 -5 -7 -10 -11 -12 -9 -2 3 -23 34 -48 70
-125 186 -419 525 -438 506 -3 -4 30 -43 74 -88 43 -45 84 -87 90 -94 41 -47
100 -119 143 -174 28 -36 54 -69 59 -75 24 -30 102 -149 102 -156 0 -4 -25
-41 -55 -81 -30 -40 -67 -99 -83 -130 -15 -32 -29 -57 -32 -58 -5 0 -40 78
-37 83 3 5 -90 137 -164 232 -110 143 -215 256 -356 385 -129 118 -193 169
-338 266 -104 70 -139 90 -134 76 2 -6 62 -49 132 -96 170 -114 255 -184 418
-346 133 -132 232 -244 319 -365 l44 -60 -49 40 c-74 60 -114 87 -175 119 -37
19 -97 71 -182 157 -132 132 -269 248 -398 337 -41 28 -80 55 -85 59 -75 55
-431 233 -468 233 -23 0 9 -18 98 -56 202 -86 447 -237 640 -395 60 -49 296
-287 302 -304 3 -11 8 -63 10 -115 5 -154 52 -318 112 -393 20 -24 11 -29 -30
-16 -19 6 -43 12 -54 14 -130 21 -160 26 -160 28 -1 1 -32 43 -70 92 -70 91
-317 346 -368 380 -51 33 -38 9 25 -46 132 -113 313 -309 373 -402 l18 -29
-31 5 c-17 3 -33 3 -36 0 -3 -3 9 -33 26 -67 82 -163 194 -295 297 -350 111
-59 239 -39 286 46 l21 36 23 -61 c48 -128 101 -278 101 -288 0 -6 -12 -2 -27
9 -72 50 -263 129 -355 146 -13 2 -43 9 -67 16 -23 6 -45 9 -48 7 -8 -8 58
-189 90 -247 93 -170 202 -262 327 -276 63 -7 150 15 150 39 0 21 18 -8 24
-38 3 -16 8 -43 11 -60 9 -45 23 -134 30 -185 l7 -45 -27 40 c-77 115 -266
257 -421 316 -24 9 -25 8 -20 -18 3 -16 8 -46 11 -68 5 -41 6 -50 26 -143 16
-81 64 -214 100 -282 35 -65 102 -141 146 -164 68 -34 141 -23 181 29 l22 28
1 -24 c1 -46 -3 -244 -6 -269 -2 -14 -4 -32 -4 -40 -1 -8 -15 9 -31 39 -39 71
-109 152 -189 218 -84 69 -254 175 -261 162 -4 -5 -6 10 -6 33 0 86 -18 223
-46 363 -90 445 -313 858 -640 1187 -109 109 -142 137 -264 229 -268 200 -610
355 -919 415 -11 2 -31 6 -45 9 -36 7 -81 14 -126 20 -21 2 -51 7 -66 10 -87
19 -544 5 -627 -19 -9 -3 -36 -8 -61 -11 -74 -10 -267 -63 -369 -102 -531
-197 -962 -565 -1249 -1066 -226 -395 -331 -891 -289 -1367 63 -724 481 -1397
1109 -1786 202 -125 521 -258 688 -287 14 -3 43 -10 65 -15 22 -6 76 -16 121
-22 44 -6 91 -13 105 -16 42 -10 401 -12 474 -3 197 24 215 27 334 55 827 201
1481 827 1716 1643 58 205 87 394 89 588 1 51 4 93 9 93 4 0 7 -9 7 -21 0 -11
9 -67 20 -122 51 -250 141 -414 262 -478 41 -21 98 -25 130 -8 11 6 22 9 24 6
6 -6 -29 -167 -63 -290 -25 -92 -38 -118 -39 -79 -4 130 -86 317 -218 496 -68
94 -68 94 -81 11 -3 -22 -8 -56 -11 -75 -10 -62 -13 -325 -4 -366 5 -21 11
-53 14 -70 28 -159 143 -270 226 -219 25 15 -88 -222 -182 -382 -33 -57 -61
-103 -63 -103 -2 0 -4 38 -4 85 0 47 -2 89 -4 93 -3 4 -8 31 -11 61 -4 29 -8
57 -11 61 -2 4 -7 22 -10 41 -7 42 -79 260 -98 295 -13 26 -14 25 -49 -53 -44
-95 -94 -251 -107 -330 -14 -82 -7 -238 13 -301 20 -62 76 -129 118 -140 28
-7 28 -8 11 -27 -10 -11 -43 -52 -74 -90 -84 -105 -193 -217 -176 -180 27 56
41 140 41 240 0 154 -14 231 -72 412 l-26 82 -35 -52 c-84 -125 -196 -375
-219 -490 -4 -18 -7 -77 -7 -132 0 -87 3 -105 23 -141 29 -50 68 -74 118 -74
43 0 51 10 -71 -96 -66 -58 -234 -190 -263 -208 -12 -7 -12 -4 -2 15 34 62 54
188 54 329 0 131 -24 324 -42 342 -5 5 -24 -10 -45 -34 -19 -24 -52 -61 -71
-83 -52 -58 -143 -195 -181 -273 -104 -211 -92 -395 29 -459 17 -9 13 -14 -35
-45 -353 -225 -628 -336 -984 -396 -83 -14 -307 -7 -414 13 -9 1 -36 6 -61 9
-279 42 -604 168 -888 345 -108 68 -136 91 -109 91 25 0 77 62 91 110 51 170
-70 446 -304 693 l-55 59 -12 -64 c-18 -92 -27 -201 -27 -303 0 -132 7 -178
50 -315 6 -20 -8 -13 -82 45 -103 80 -179 143 -241 201 l-44 40 38 0 c49 0 89
27 116 78 18 34 22 58 22 136 0 115 -4 143 -40 245 -44 129 -184 401 -216 420
-9 6 -62 -160 -85 -265 -23 -102 -23 -311 -1 -385 29 -96 30 -102 15 -84 -7 9
-45 51 -85 95 -39 43 -95 108 -123 144 -52 64 -52 65 -26 68 37 5 92 65 116
129 58 155 23 404 -92 652 l-34 73 -37 -96 c-36 -94 -83 -257 -93 -326 -3 -19
-7 -46 -10 -60 -2 -14 -4 -60 -5 -102 0 -43 -2 -78 -4 -78 -16 0 -209 362
-240 450 -14 39 -13 40 5 30 40 -21 76 -12 123 33 82 80 116 217 112 442 -2
83 -5 161 -8 175 -3 14 -8 44 -11 67 -13 102 -12 102 -78 11 -115 -160 -197
-324 -214 -433 -4 -27 -9 -53 -10 -57 -1 -5 -2 -16 -3 -25 -4 -33 -101 335
-101 382 0 2 15 -2 32 -9 146 -60 317 147 383 460 26 125 39 224 29 224 -13 0
-149 -85 -211 -132 -115 -88 -191 -172 -237 -262 l-24 -47 -4 33 c-3 18 -6 95
-7 173 l-2 140 31 -32 c63 -64 152 -53 234 30 29 29 63 72 77 97 48 86 95 222
113 324 3 16 10 52 15 80 19 101 20 126 7 126 -18 0 -161 -76 -231 -124 -70
-47 -161 -134 -199 -191 l-27 -40 6 45 c3 25 7 56 10 70 2 14 7 39 10 55 21
125 28 155 34 155 4 0 17 -7 29 -16 54 -37 144 -36 224 4 94 47 166 123 231
242 31 57 97 227 97 249 0 10 -93 -10 -210 -45 -89 -27 -188 -70 -252 -111
-21 -13 -38 -19 -38 -13 0 13 81 238 108 300 19 44 20 45 30 20 20 -49 78 -88
139 -94 151 -13 322 133 447 382 l36 72 -35 0 -36 0 23 33 c77 109 271 317
378 403 38 31 51 46 45 53 -6 5 -117 -91 -200 -174 -92 -92 -155 -165 -217
-247 -53 -71 -55 -73 -133 -83 -27 -3 -76 -13 -109 -21 -64 -17 -77 -13 -54
13 36 41 78 151 93 243 6 35 21 64 47 91 7 8 28 32 47 54 80 95 252 264 336
330 27 22 56 46 64 53 25 24 280 190 326 212 38 18 59 40 39 40 -27 0 -307
-186 -434 -287 -80 -65 -277 -255 -329 -318 -13 -17 -37 -45 -53 -63 l-28 -33
4 83 c3 46 5 88 5 95 2 34 293 302 466 429 135 100 381 237 537 300 27 10 48
22 48 27 0 12 -11 8 -90 -27z m-1265 -1346 c-3 -5 -11 -10 -16 -10 -6 0 -7 5
-4 10 3 6 11 10 16 10 6 0 7 -4 4 -10z m4990 -20 c3 -6 -1 -7 -9 -4 -18 7 -21
14 -7 14 6 0 13 -4 16 -10z"/>
<path d="M1500 6059 c-215 -171 -475 -454 -639 -697 -44 -66 -51 -99 -9 -40
14 18 56 76 94 128 38 52 77 104 86 115 102 121 161 187 229 254 58 59 102 99
234 215 43 37 47 58 5 25z"/>
<path d="M5470 6052 c0 -4 17 -22 38 -38 79 -62 283 -259 367 -355 85 -96 231
-288 273 -357 11 -19 23 -29 26 -24 8 14 -154 239 -269 371 -61 72 -284 292
-350 347 -69 58 -85 69 -85 56z"/>
<path d="M4844 5981 c4 -5 39 -27 79 -49 128 -71 262 -166 411 -292 71 -60
285 -282 321 -333 8 -11 18 -18 21 -14 10 10 -57 88 -196 228 -180 181 -370
328 -562 433 -66 37 -84 43 -74 27z"/>
<path d="M1969 5743 c-242 -164 -521 -446 -689 -696 -18 -27 -29 -51 -26 -54
7 -8 4 -11 49 57 149 228 460 540 678 681 27 18 49 36 49 41 0 12 -4 11 -61
-29z"/>
<path d="M4970 5753 c0 -5 31 -28 68 -52 208 -138 452 -381 632 -629 41 -57
76 -98 78 -93 3 9 -125 190 -186 262 -159 188 -347 361 -519 477 -63 43 -73
48 -73 35z"/>
</g>
</svg>
