<?xml version="1.0" encoding="UTF-8" standalone="no"?>
<!-- Created with Inkscape (http://www.inkscape.org/) -->

<svg
   xmlns:dc="http://purl.org/dc/elements/1.1/"
   xmlns:cc="http://creativecommons.org/ns#"
   xmlns:rdf="http://www.w3.org/1999/02/22-rdf-syntax-ns#"
   xmlns:svg="http://www.w3.org/2000/svg"
   xmlns="http://www.w3.org/2000/svg"
   xmlns:xlink="http://www.w3.org/1999/xlink"
   xmlns:sodipodi="http://sodipodi.sourceforge.net/DTD/sodipodi-0.dtd"
   xmlns:inkscape="http://www.inkscape.org/namespaces/inkscape"
   width="200"
   height="200"
   id="svg2"
   sodipodi:version="0.32"
   inkscape:version="0.48.3.1 r9886"
   version="1.0"
   sodipodi:docname="Partido_Comunista_de_Chile.svg"
   inkscape:output_extension="org.inkscape.output.svg.inkscape">
  <defs
     id="defs4">
    <inkscape:perspective
       sodipodi:type="inkscape:persp3d"
       inkscape:vp_x="0 : 98.5 : 1"
       inkscape:vp_y="0 : 1000 : 0"
       inkscape:vp_z="196 : 98.5 : 1"
       inkscape:persp3d-origin="98 : 65.666667 : 1"
       id="perspective66" />
  </defs>
  <sodipodi:namedview
     id="base"
     pagecolor="#ffffff"
     bordercolor="#666666"
     borderopacity="1.0"
     gridtolerance="10000"
     guidetolerance="10"
     objecttolerance="10"
     inkscape:pageopacity="0.0"
     inkscape:pageshadow="2"
     inkscape:zoom="1.095"
     inkscape:cx="276.5604"
     inkscape:cy="75.426529"
     inkscape:document-units="px"
     inkscape:current-layer="g3427"
     showgrid="false"
     showguides="true"
     inkscape:guide-bbox="true"
     inkscape:window-width="1600"
     inkscape:window-height="848"
     inkscape:window-x="-8"
     inkscape:window-y="-8"
     inkscape:window-maximized="1" />
  <metadata
     id="metadata7">
    <rdf:RDF>
      <cc:Work
         rdf:about="">
        <dc:format>image/svg+xml</dc:format>
        <dc:type
           rdf:resource="http://purl.org/dc/dcmitype/StillImage" />
      </cc:Work>
    </rdf:RDF>
  </metadata>
  <g
     inkscape:label="Layer 1"
     inkscape:groupmode="layer"
     id="layer1"
     transform="translate(-142.28027,-119.33594)">
    <g
       id="g3487">
      <g
         transform="matrix(1.2139646,0,0,1.2139646,-125.63566,-457.76409)"
         id="g3427">
        <path
           sodipodi:type="arc"
           style="opacity:1;fill:#0f47af;fill-opacity:1;stroke:none;stroke-width:1.43972254;stroke-linecap:round;stroke-linejoin:miter;stroke-miterlimit:4;stroke-dasharray:none;stroke-dashoffset:0;stroke-opacity:1"
           id="path2574"
           sodipodi:cx="68.827789"
           sodipodi:cy="74.898727"
           sodipodi:rx="70.772079"
           sodipodi:ry="70.772079"
           d="M -1.9442902,74.898724 C -1.9442883,35.812384 29.741452,4.1266461 68.827793,4.1266479 107.91413,4.1266498 139.59987,35.812388 139.59987,74.898727 l -70.772081,0 z"
           transform="matrix(0.7652988,0,0,0.7652988,251.11085,502.34168)"
           sodipodi:start="3.1415927"
           sodipodi:end="6.2831853" />
        <path
           transform="matrix(0.7652988,0,0,0.7652988,251.11085,502.34168)"
           d="m 139.59987,74.898727 c 0,39.086343 -31.68574,70.772083 -70.772081,70.772083 -39.08634,0 -70.7720792,-31.68574 -70.7720792,-70.772083 0,-10e-7 0,-2e-6 0,-3e-6 l 70.7720792,3e-6 z"
           sodipodi:ry="70.772079"
           sodipodi:rx="70.772079"
           sodipodi:cy="74.898727"
           sodipodi:cx="68.827789"
           id="path3354"
           style="opacity:1;fill:#da121a;fill-opacity:1;stroke:none;stroke-width:1.43972254;stroke-linecap:round;stroke-linejoin:miter;stroke-miterlimit:4;stroke-dasharray:none;stroke-dashoffset:0;stroke-opacity:1"
           sodipodi:type="arc"
           sodipodi:start="0"
           sodipodi:end="3.1415927" />
        <g
           id="g3379"
           transform="matrix(0.8452111,0.1009816,-9.1128083e-2,0.8766131,104.32363,56.343767)"
           style="stroke:#000000;stroke-width:0.46004754;stroke-miterlimit:4;stroke-dasharray:none;stroke-opacity:1">
          <path
             id="path2396"
             d="M 210.77323,496.94139 C 214.12155,490.65225 218.01378,484.9221 222.39712,479.78651"
             style="fill:none;fill-opacity:1;fill-rule:evenodd;stroke:#000000;stroke-width:0.46004754;stroke-linecap:round;stroke-linejoin:round;stroke-miterlimit:4;stroke-dasharray:none;stroke-dashoffset:0;stroke-opacity:1"
             sodipodi:nodetypes="cs" />
          <path
             id="path3168"
             d="M 214.55621,498.95544 C 219.17409,490.28171 224.88153,482.72189 231.52102,476.38118"
             style="fill:none;fill-opacity:1;fill-rule:evenodd;stroke:#000000;stroke-width:0.46004754;stroke-linecap:round;stroke-linejoin:round;stroke-miterlimit:4;stroke-dasharray:none;stroke-dashoffset:0;stroke-opacity:1"
             sodipodi:nodetypes="cs" />
          <path
             id="path3170"
             d="M 217.86631,500.71774 C 224.01636,489.16614 232.20201,479.67112 241.98787,472.51738"
             style="fill:none;fill-opacity:1;fill-rule:evenodd;stroke:#000000;stroke-width:0.46004754;stroke-linecap:round;stroke-linejoin:round;stroke-miterlimit:4;stroke-dasharray:none;stroke-dashoffset:0;stroke-opacity:1"
             sodipodi:nodetypes="cs" />
          <path
             id="path3172"
             d="M 220.89942,502.33256 C 228.78234,487.52611 240.18062,476.23133 254.03279,469.1277"
             style="fill:none;fill-opacity:1;fill-rule:evenodd;stroke:#000000;stroke-width:0.46004754;stroke-linecap:round;stroke-linejoin:round;stroke-miterlimit:4;stroke-dasharray:none;stroke-dashoffset:0;stroke-opacity:1"
             sodipodi:nodetypes="cs" />
          <path
             id="path3174"
             d="M 224.01366,503.99057 C 230.2442,492.28779 238.74933,482.89518 249.00469,476.1589"
             style="fill:none;fill-opacity:1;fill-rule:evenodd;stroke:#000000;stroke-width:0.46004754;stroke-linecap:round;stroke-linejoin:round;stroke-miterlimit:4;stroke-dasharray:none;stroke-dashoffset:0;stroke-opacity:1"
             sodipodi:nodetypes="cs" />
          <path
             id="path3176"
             d="M 227.16614,505.66895 C 232.08207,496.43538 238.46573,488.72332 246.06641,482.70413"
             style="fill:none;fill-opacity:1;fill-rule:evenodd;stroke:#000000;stroke-width:0.46004754;stroke-linecap:round;stroke-linejoin:round;stroke-miterlimit:4;stroke-dasharray:none;stroke-dashoffset:0;stroke-opacity:1"
             sodipodi:nodetypes="cs" />
          <path
             id="path3178"
             d="M 230.94913,507.683 C 234.47478,501.06079 238.79228,495.2786 243.81251,490.39954"
             style="fill:none;fill-opacity:1;fill-rule:evenodd;stroke:#000000;stroke-width:0.46004754;stroke-linecap:round;stroke-linejoin:round;stroke-miterlimit:4;stroke-dasharray:none;stroke-dashoffset:0;stroke-opacity:1"
             sodipodi:nodetypes="cs" />
          <g
             transform="translate(191.42857,0)"
             id="g3231"
             style="stroke:#000000;stroke-width:0.46004754;stroke-miterlimit:4;stroke-dasharray:none;stroke-opacity:1">
            <path
               style="fill:#ffcc00;fill-opacity:1;fill-rule:evenodd;stroke:#000000;stroke-width:0.46004754;stroke-linecap:round;stroke-linejoin:round;stroke-miterlimit:4;stroke-dasharray:none;stroke-dashoffset:0;stroke-opacity:1"
               d="M 29.630513,503.21909 C 29.300733,503.29263 29.030383,503.52772 28.911763,503.84409 C 15.602773,535.31992 18.184474,563.906 33.411763,586.46909 C 39.978832,596.19987 48.827408,605.00273 59.721903,612.48455 C 83.946915,631.84471 109.73822,629.68264 131.21272,628.09762 C 131.75638,628.2098 132.5559,626.7886 132.66808,626.24494 C 132.78026,625.70128 132.87692,624.54462 132.33326,624.43244 C 100.97912,628.01924 90.014534,627.45653 62.823759,611.23214 C 51.182475,604.02618 41.803325,595.35541 35.068013,585.37534 C 20.218854,563.37255 17.650903,535.61781 30.755513,504.62534 C 30.920943,504.27919 30.873783,503.86891 30.634113,503.56933 C 30.394453,503.26975 30.004533,503.13368 29.630513,503.21909 L 29.630513,503.21909 z"
               id="path3216"
               sodipodi:nodetypes="ccsccsccscscc" />
            <path
               style="fill:#ffcc00;fill-opacity:1;fill-rule:evenodd;stroke:#000000;stroke-width:0.46004754;stroke-linecap:butt;stroke-linejoin:miter;stroke-miterlimit:4;stroke-dasharray:none;stroke-opacity:1"
               d="M 18.850767,496.38933 C 12.075417,527.10914 40.234197,514.71627 18.850767,496.38933 z"
               id="path3182"
               sodipodi:nodetypes="cc" />
            <path
               sodipodi:nodetypes="cc"
               id="path3184"
               d="M 43.202807,504.56403 C 12.209977,509.95449 34.362557,531.3031 43.202807,504.56403 z"
               style="fill:#ffcc00;fill-opacity:1;fill-rule:evenodd;stroke:#000000;stroke-width:0.46004754;stroke-linecap:butt;stroke-linejoin:miter;stroke-miterlimit:4;stroke-dasharray:none;stroke-opacity:1" />
            <path
               style="fill:#ffcc00;fill-opacity:1;fill-rule:evenodd;stroke:#000000;stroke-width:0.46004754;stroke-linecap:butt;stroke-linejoin:miter;stroke-miterlimit:4;stroke-dasharray:none;stroke-opacity:1"
               d="M 11.642859,510.86219 C 8.2500008,549.88005 36.285716,530.77291 11.642859,510.86219 z"
               id="path3186"
               sodipodi:nodetypes="cc" />
            <path
               sodipodi:nodetypes="cc"
               id="path3188"
               d="M 37.565142,518.86765 C 5.1897713,528.98463 32.817842,546.86318 37.565142,518.86765 z"
               style="fill:#ffcc00;fill-opacity:1;fill-rule:evenodd;stroke:#000000;stroke-width:0.46004754;stroke-linecap:butt;stroke-linejoin:miter;stroke-miterlimit:4;stroke-dasharray:none;stroke-opacity:1" />
            <path
               style="fill:#ffcc00;fill-opacity:1;fill-rule:evenodd;stroke:#000000;stroke-width:0.46004754;stroke-linecap:butt;stroke-linejoin:miter;stroke-miterlimit:4;stroke-dasharray:none;stroke-opacity:1"
               d="M 8.0714299,529.96933 C 8.0714299,561.57648 36.82143,551.93362 8.0714299,529.96933 z"
               id="path3190" />
            <path
               style="fill:#ffcc00;fill-opacity:1;fill-rule:evenodd;stroke:#000000;stroke-width:0.46004754;stroke-linecap:butt;stroke-linejoin:miter;stroke-miterlimit:4;stroke-dasharray:none;stroke-opacity:1"
               d="M 34.142859,531.3979 C 33.785716,566.04076 7.0000012,546.3979 34.142859,531.3979 z"
               id="path3192" />
            <path
               style="fill:#ffcc00;fill-opacity:1;fill-rule:evenodd;stroke:#000000;stroke-width:0.46004754;stroke-linecap:butt;stroke-linejoin:miter;stroke-miterlimit:4;stroke-dasharray:none;stroke-opacity:1"
               d="M 6.2857156,547.11219 C 13.428573,580.1479 40.928573,564.79076 6.2857156,547.11219 z"
               id="path3194"
               sodipodi:nodetypes="cc" />
            <path
               style="fill:#ffcc00;fill-opacity:1;fill-rule:evenodd;stroke:#000000;stroke-width:0.46004754;stroke-linecap:butt;stroke-linejoin:miter;stroke-miterlimit:4;stroke-dasharray:none;stroke-opacity:1"
               d="M 35.750002,545.50505 C 35.750002,577.82648 9.3214297,563.36219 35.750002,545.50505 z"
               id="path3196" />
            <path
               style="fill:#ffcc00;fill-opacity:1;fill-rule:evenodd;stroke:#000000;stroke-width:0.46004754;stroke-linecap:butt;stroke-linejoin:miter;stroke-miterlimit:4;stroke-dasharray:none;stroke-opacity:1"
               d="M 9.8571437,566.93362 C 21.82143,597.82648 44.500002,573.18362 9.8571437,566.93362 z"
               id="path3198"
               sodipodi:nodetypes="cc" />
            <path
               style="fill:#ffcc00;fill-opacity:1;fill-rule:evenodd;stroke:#000000;stroke-width:0.46004754;stroke-linecap:butt;stroke-linejoin:miter;stroke-miterlimit:4;stroke-dasharray:none;stroke-opacity:1"
               d="M 35.57143,558.18362 C 45.214288,589.61219 18.250002,584.07648 35.57143,558.18362 z"
               id="path3200"
               sodipodi:nodetypes="cc" />
            <path
               style="fill:#ffcc00;fill-opacity:1;fill-rule:evenodd;stroke:#000000;stroke-width:0.46004754;stroke-linecap:butt;stroke-linejoin:miter;stroke-miterlimit:4;stroke-dasharray:none;stroke-opacity:1"
               d="M 19.500002,586.75505 C 27.476963,602.10313 38.95137,601.89186 40.230174,598.0103 C 41.212917,595.02737 44.063928,591.41933 19.500002,586.75505 z"
               id="path3202"
               sodipodi:nodetypes="csc" />
            <path
               style="fill:#ffcc00;fill-opacity:1;fill-rule:evenodd;stroke:#000000;stroke-width:0.46004754;stroke-linecap:butt;stroke-linejoin:miter;stroke-miterlimit:4;stroke-dasharray:none;stroke-opacity:1"
               d="M 42.535716,574.25505 C 59.32143,599.25505 32.535716,607.64791 42.535716,574.25505 z"
               id="path3204"
               sodipodi:nodetypes="cc" />
            <path
               style="fill:#ffcc00;fill-opacity:1;fill-rule:evenodd;stroke:#000000;stroke-width:0.46004754;stroke-linecap:butt;stroke-linejoin:miter;stroke-miterlimit:4;stroke-dasharray:none;stroke-opacity:1"
               d="M 30.035716,604.79076 C 50.214287,626.57648 73.428573,597.29076 30.035716,604.79076 z"
               id="path3206"
               sodipodi:nodetypes="cc" />
            <path
               style="fill:#ffcc00;fill-opacity:1;fill-rule:evenodd;stroke:#000000;stroke-width:0.46004754;stroke-linecap:butt;stroke-linejoin:miter;stroke-miterlimit:4;stroke-dasharray:none;stroke-opacity:1"
               d="M 52.357145,584.25505 C 76.285717,612.46934 43.785716,616.21934 52.357145,584.25505 z"
               id="path3208"
               sodipodi:nodetypes="cc" />
            <path
               style="fill:#ffcc00;fill-opacity:1;fill-rule:evenodd;stroke:#000000;stroke-width:0.46004754;stroke-linecap:butt;stroke-linejoin:miter;stroke-miterlimit:4;stroke-dasharray:none;stroke-opacity:1"
               d="M 46.464287,619.43362 C 83.250002,604.43362 74.678573,637.64791 46.464287,619.43362 z"
               id="path3210" />
            <path
               style="fill:#ffcc00;fill-opacity:1;fill-rule:evenodd;stroke:#000000;stroke-width:0.46004754;stroke-linecap:butt;stroke-linejoin:miter;stroke-miterlimit:4;stroke-dasharray:none;stroke-opacity:1"
               d="M 65.928573,595.86219 C 94.142859,618.54076 62.357144,630.68362 65.928573,595.86219 z"
               id="path3212"
               sodipodi:nodetypes="cc" />
            <path
               style="fill:#ffcc00;fill-opacity:1;fill-rule:evenodd;stroke:#000000;stroke-width:0.46004754;stroke-linecap:butt;stroke-linejoin:miter;stroke-miterlimit:4;stroke-dasharray:none;stroke-opacity:1"
               d="M 130.56353,624.24858 L 134.75325,626.1798 C 134.75325,626.1798 131.31291,629.23529 128.78753,627.84633 C 129.04007,624.3108 129.78644,624.77306 130.56353,624.24858 z"
               id="path3228"
               sodipodi:nodetypes="cccc" />
            <path
               style="fill:#ffcc00;fill-opacity:1;fill-rule:evenodd;stroke:#000000;stroke-width:0.46004754;stroke-linecap:butt;stroke-linejoin:miter;stroke-miterlimit:4;stroke-dasharray:none;stroke-opacity:1"
               d="M 35.794645,492.29076 C 39.098216,521.39791 11.009989,507.48497 35.794645,492.29076 z"
               id="path3180"
               sodipodi:nodetypes="cc" />
          </g>
        </g>
        <use
           x="0"
           y="0"
           xlink:href="#g3379"
           id="use2572"
           transform="matrix(-1,0,0,1,606.13947,0.3888576)"
           width="196"
           height="197" />
        <path
           style="opacity:1;fill:#ffffff;fill-opacity:1;stroke:#333333;stroke-width:0.45380971;stroke-linecap:round;stroke-linejoin:miter;stroke-miterlimit:4;stroke-dasharray:none;stroke-dashoffset:0;stroke-opacity:1"
           d="M 303.77271,504.39842 C 273.27926,504.39842 248.52771,529.17388 248.52771,559.66734 C 248.52771,590.1608 273.27926,614.93625 303.77271,614.93625 C 334.26617,614.93625 359.04164,590.1608 359.04164,559.66734 C 359.04164,529.17388 334.26617,504.39842 303.77271,504.39842 z M 303.77271,506.59865 C 333.07386,506.59865 356.8414,530.36618 356.8414,559.66734 C 356.8414,588.96849 333.07386,612.7121 303.77271,612.7121 C 274.47157,612.7121 250.72794,588.96849 250.72794,559.66734 C 250.72794,530.36618 274.47157,506.59865 303.77271,506.59865 z"
           id="path3348" />
        <path
           transform="matrix(0.9519274,-3.4423796e-2,3.4423971e-2,0.951902,194.17088,379.8029)"
           d="m 119.32701,132.33077 -8.69258,-6.52145 -9.10268,5.93562 3.51611,-10.28237 -8.457987,-6.82295 10.865657,0.16659 3.87535,-10.15244 3.19923,10.38534 10.85309,0.5484 -8.88842,6.25189 z"
           inkscape:randomized="0"
           inkscape:rounded="0"
           inkscape:flatsided="false"
           sodipodi:arg2="1.603705"
           sodipodi:arg1="0.97538645"
           sodipodi:r2="6.0212598"
           sodipodi:r1="15.145748"
           sodipodi:cy="119.79132"
           sodipodi:cx="110.83254"
           sodipodi:sides="5"
           id="path3237"
           style="fill:#ffffff;fill-opacity:1;stroke:#333333;stroke-width:0.43239646999999998;stroke-linecap:butt;stroke-linejoin:miter;stroke-miterlimit:7;stroke-dasharray:none;stroke-dashoffset:0;stroke-opacity:1"
           sodipodi:type="star" />
      </g>
      <g
         id="g3030"
         transform="matrix(0.6490056,0,0,0.6490056,-21.87548,88.04197)"
         style="fill:#ffffff;fill-opacity:1;stroke:#000000;stroke-opacity:1">
        <path
           style="fill:#ffffff;fill-opacity:1;fill-rule:evenodd;stroke:#000000;stroke-width:0.64900559;stroke-opacity:1"
           d="M 106 52.96875 C 112.64957 58.719489 117.86635 62.728589 121.90625 67.875 C 136.53614 86.511959 134.45991 101.92414 126.28125 111.4375 C 115.11274 100.37591 104.43692 89.77058 90.96875 76.5625 L 103.46875 64 L 83.4375 61.75 L 61.375 82.75 L 73.15625 94.5 L 83.3125 84.28125 C 95.625187 96.778733 106.23463 107.53987 117.09375 118.5625 C 105.72251 124.27842 91.359316 122.74046 85.6875 110.875 L 84.625 109.65625 L 79.125 109.75 C 79.125 109.75 73.408003 113.38763 72.625 116.03125 C 71.519517 114.56791 70.077343 112.67848 69.03125 112.71875 C 64.688215 112.88594 63.749743 116.07855 67.875 120.21875 C 61.888586 124.18474 58.6309 125.89729 54.90625 132.125 C 52.777443 138.71253 56.986418 141.5767 61.75 141.03125 C 69.55824 137.78746 71.164987 132.53443 75.34375 126.75 C 78.534529 131.81073 82.642665 128.20789 81.71875 126.0625 C 81.132189 124.70047 79.25 122.40625 79.25 122.40625 L 81.40625 120.65625 C 96.541826 141.93456 115.20181 140.87329 128.40625 130.0625 C 131.48396 133.18631 134.4027 136.13551 137.65625 139.4375 C 142.95182 144.92806 152.15564 137.46451 146.25 131.125 C 142.73574 127.70019 139.58384 124.59357 136.375 121.4375 C 151.36432 100.25417 150.5024 64.462014 106 52.96875 z "
           transform="matrix(1.5408188,0,0,1.5408188,252.93426,48.218336)"
           id="hammer_head" />
        <g
           transform="matrix(0.83334944,0,0,0.83334944,199.70496,-127.3156)"
           id="g3852"
           style="fill:#ffffff;fill-opacity:1;stroke:#000000;stroke-opacity:1" />
      </g>
    </g>
  </g>
</svg>
